<svg xmlns="http://www.w3.org/2000/svg" viewBox="0 0 128 128" width="128" height="128">
<rect width="128" height="128" fill="#F0EEEB"/>
<polygon points="45,30 48,16 51,30" fill="#2D5A34"/><polygon points="53,30 56,16 59,30" fill="#2D5A34"/><polygon points="61,30 64,16 67,30" fill="#2D5A34"/><polygon points="69,30 72,16 75,30" fill="#2D5A34"/><polygon points="77,30 80,16 83,30" fill="#2D5A34"/>
<polygon points="64,26 99.69999999999999,49.099999999999994 99.69999999999999,86.9 64,99.5 28.300000000000004,86.9 28.300000000000004,49.099999999999994" fill="#3D7C47"/>
<line x1="48" y1="72" x2="80" y2="72" stroke="#2D5A34" stroke-width="0.8" opacity="0.2"/><line x1="52" y1="78" x2="76" y2="78" stroke="#2D5A34" stroke-width="0.8" opacity="0.2"/><line x1="56" y1="84" x2="72" y2="84" stroke="#2D5A34" stroke-width="0.8" opacity="0.2"/>
<polygon points="50,59 55,64 50,69 45,64" fill="white"/>
           <polygon points="50,62 52,64 50,66 48,64" fill="#1a1a1a"/>
           <polygon points="78,59 83,64 78,69 73,64" fill="white"/>
           <polygon points="78,62 80,64 78,66 76,64" fill="#1a1a1a"/>
<path d="M52 82 L56 86 L60 82 L64 86 L68 82 L72 86 L76 82" fill="none" stroke="#1a1a1a" stroke-width="1.5"/>
</svg>