<svg xmlns="http://www.w3.org/2000/svg" viewBox="0 0 128 128" width="128" height="128">
<rect width="128" height="128" fill="#F0EEEB"/>
<polygon points="45,30 48,16 51,30" fill="#2D5A34"/><polygon points="53,30 56,16 59,30" fill="#2D5A34"/><polygon points="61,30 64,16 67,30" fill="#2D5A34"/><polygon points="69,30 72,16 75,30" fill="#2D5A34"/><polygon points="77,30 80,16 83,30" fill="#2D5A34"/>
<polygon points="64,26 99.69999999999999,49.099999999999994 99.69999999999999,86.9 64,99.5 28.300000000000004,86.9 28.300000000000004,49.099999999999994" fill="#3D7C47"/>

<polygon points="50,59 55,64 50,69 45,64" fill="white"/>
           <polygon points="50,62 52,64 50,66 48,64" fill="#1a1a1a"/>
           <polygon points="78,59 83,64 78,69 73,64" fill="white"/>
           <polygon points="78,62 80,64 78,66 76,64" fill="#1a1a1a"/>
<line x1="54" y1="84" x2="74" y2="84" stroke="#1a1a1a" stroke-width="2" stroke-linecap="square"/>
</svg>