<svg xmlns="http://www.w3.org/2000/svg" viewBox="0 0 128 128" width="128" height="128">
<rect width="128" height="128" fill="#F0EEEB"/>
<polygon points="46,34 50,6 54,34" fill="#5C3D33"/>
           <polygon points="74,34 78,6 82,34" fill="#5C3D33"/>
<polygon points="64,26 101.80000000000001,55.4 93.4,97.4 34.6,97.4 26.199999999999996,55.4" fill="#7D5A50"/>
<polygon points="56,73 59,76 56,79 53,76" fill="#5C3D33" opacity="0.3"/><polygon points="70,71 73,74 70,77 67,74" fill="#5C3D33" opacity="0.3"/><polygon points="62,77 65,80 62,83 59,80" fill="#5C3D33" opacity="0.3"/><polygon points="76,63 79,66 76,69 73,66" fill="#5C3D33" opacity="0.3"/>
<polygon points="50,59 55,64 50,69 45,64" fill="white"/>
           <polygon points="50,62 52,64 50,66 48,64" fill="#1a1a1a"/>
           <polygon points="78,59 83,64 78,69 73,64" fill="white"/>
           <polygon points="78,62 80,64 78,66 76,64" fill="#1a1a1a"/>
<line x1="54" y1="84" x2="74" y2="84" stroke="#1a1a1a" stroke-width="2" stroke-linecap="square"/>
</svg>