<svg xmlns="http://www.w3.org/2000/svg" viewBox="0 0 128 128" width="128" height="128">
<rect width="128" height="128" fill="#F0EEEB"/>
<polygon points="46,34 50,6 54,34" fill="#345B73"/>
           <polygon points="74,34 78,6 82,34" fill="#345B73"/>
<polygon points="32.5,38.6 95.5,38.6 99.69999999999999,76.4 64,101.6 28.300000000000004,76.4" fill="#4A7B9D"/>
<polygon points="56,73 59,76 56,79 53,76" fill="#345B73" opacity="0.3"/><polygon points="70,71 73,74 70,77 67,74" fill="#345B73" opacity="0.3"/><polygon points="62,77 65,80 62,83 59,80" fill="#345B73" opacity="0.3"/><polygon points="76,63 79,66 76,69 73,66" fill="#345B73" opacity="0.3"/>
<polygon points="44,67 50,59 56,67" fill="white"/>
           <circle cx="50" cy="65" r="2.5" fill="#1a1a1a"/>
           <polygon points="72,67 78,59 84,67" fill="white"/>
           <circle cx="78" cy="65" r="2.5" fill="#1a1a1a"/>
<polyline points="54,82 60,88 68,88 74,82" fill="none" stroke="#1a1a1a" stroke-width="1.5" stroke-linejoin="miter"/>
</svg>