<svg xmlns="http://www.w3.org/2000/svg" viewBox="0 0 128 128" width="128" height="128">
<defs><radialGradient id="gs666773743_0" cx="35%" cy="35%"><stop offset="0%" stop-color="#936639" stop-opacity="0.7333333333333333"/><stop offset="100%" stop-color="#936639" stop-opacity="0.36666666666666664"/></radialGradient><radialGradient id="gs666773743_1" cx="35%" cy="35%"><stop offset="0%" stop-color="#936639" stop-opacity="0.8666666666666667"/><stop offset="100%" stop-color="#936639" stop-opacity="0.43333333333333335"/></radialGradient><radialGradient id="gs666773743_2" cx="35%" cy="35%"><stop offset="0%" stop-color="#936639" stop-opacity="0.8666666666666667"/><stop offset="100%" stop-color="#936639" stop-opacity="0.43333333333333335"/></radialGradient><radialGradient id="gs666773743_3" cx="35%" cy="35%"><stop offset="0%" stop-color="#936639" stop-opacity="1"/><stop offset="100%" stop-color="#936639" stop-opacity="0.5"/></radialGradient><radialGradient id="gs666773743_4" cx="35%" cy="35%"><stop offset="0%" stop-color="#936639" stop-opacity="1"/><stop offset="100%" stop-color="#936639" stop-opacity="0.5"/></radialGradient><radialGradient id="gs666773743_5" cx="35%" cy="35%"><stop offset="0%" stop-color="#936639" stop-opacity="0.6"/><stop offset="100%" stop-color="#936639" stop-opacity="0.3"/></radialGradient></defs>
<rect width="128" height="128" fill="#936639"/>
<g transform="rotate(292.5 64 64)">
<rect x="52" y="32.8" width="17.6" height="17.6" rx="3" fill="url(#gs666773743_0)" transform="rotate(292.5 60.8 41.6)"/><polygon points="105.6,22.6 118.19999999999999,35.2 105.6,47.800000000000004 93,35.2" fill="url(#gs666773743_1)" transform="rotate(90 105.6 35.2)"/><rect x="40.800000000000004" y="21.6" width="27.200000000000003" height="27.200000000000003" rx="3" fill="url(#gs666773743_2)" transform="rotate(247.5 54.400000000000006 35.2)"/><polygon points="99.2,10.8 117.2,28.8 99.2,46.8 81.2,28.8" fill="url(#gs666773743_3)" transform="rotate(45 99.2 28.8)"/><rect x="29.599999999999998" y="10.399999999999999" width="36.800000000000004" height="36.800000000000004" rx="3" fill="url(#gs666773743_4)" transform="rotate(202.5 48 28.8)"/><polygon points="92.80000000000001,-1.0000000000000036 116.20000000000002,22.4 92.80000000000001,45.8 69.4,22.4" fill="url(#gs666773743_5)" transform="rotate(0 92.80000000000001 22.4)"/>
</g>
</svg>