<svg xmlns="http://www.w3.org/2000/svg" viewBox="0 0 128 128" width="128" height="128">
<defs><radialGradient id="gs1892203720_0" cx="35%" cy="35%"><stop offset="0%" stop-color="#264653" stop-opacity="1"/><stop offset="100%" stop-color="#264653" stop-opacity="0.5"/></radialGradient><radialGradient id="gs1892203720_1" cx="35%" cy="35%"><stop offset="0%" stop-color="#F4A261" stop-opacity="1"/><stop offset="100%" stop-color="#F4A261" stop-opacity="0.5"/></radialGradient><radialGradient id="gs1892203720_2" cx="35%" cy="35%"><stop offset="0%" stop-color="#F4A261" stop-opacity="0.6"/><stop offset="100%" stop-color="#F4A261" stop-opacity="0.3"/></radialGradient><radialGradient id="gs1892203720_3" cx="35%" cy="35%"><stop offset="0%" stop-color="#F4A261" stop-opacity="0.6"/><stop offset="100%" stop-color="#F4A261" stop-opacity="0.3"/></radialGradient><radialGradient id="gs1892203720_4" cx="35%" cy="35%"><stop offset="0%" stop-color="#F4A261" stop-opacity="0.7333333333333333"/><stop offset="100%" stop-color="#F4A261" stop-opacity="0.36666666666666664"/></radialGradient><radialGradient id="gs1892203720_5" cx="35%" cy="35%"><stop offset="0%" stop-color="#F4A261" stop-opacity="0.7333333333333333"/><stop offset="100%" stop-color="#F4A261" stop-opacity="0.36666666666666664"/></radialGradient></defs>
<rect width="128" height="128" fill="#264653"/>
<g transform="rotate(180 64 64)">
<rect x="36" y="87.19999999999999" width="36.800000000000004" height="36.800000000000004" rx="3" fill="url(#gs1892203720_0)" transform="rotate(180 54.400000000000006 105.6)"/><polygon points="99.2,73.2 121.82000000000001,112.2 76.58,112.2" fill="url(#gs1892203720_1)" transform="rotate(337.5 99.2 99.2)"/><circle cx="48" cy="99.2" r="29" fill="url(#gs1892203720_2)"/><polygon points="92.80000000000001,84.80000000000001 99.76,96.80000000000001 85.84000000000002,96.80000000000001" fill="url(#gs1892203720_3)" transform="rotate(292.5 92.80000000000001 92.80000000000001)"/><circle cx="41.6" cy="92.80000000000001" r="11" fill="url(#gs1892203720_4)"/><polygon points="86.39999999999999,72.39999999999999 98.57999999999998,93.39999999999999 74.22,93.39999999999999" fill="url(#gs1892203720_5)" transform="rotate(247.5 86.39999999999999 86.39999999999999)"/>
</g>
</svg>