<svg xmlns="http://www.w3.org/2000/svg" viewBox="0 0 128 128" width="128" height="128">
<rect width="128" height="128" fill="#FAFAFA"/>

<circle cx="21.333333333333332" cy="64" r="5.973333333333333" fill="#3D7C47"/><circle cx="106.66666666666666" cy="64" r="5.973333333333333" fill="#3D7C47"/><circle cx="21.333333333333332" cy="106.66666666666666" r="5.973333333333333" fill="#3D7C47"/><circle cx="106.66666666666666" cy="106.66666666666666" r="5.973333333333333" fill="#3D7C47"/><circle cx="35.55555555555556" cy="21.333333333333332" r="5.973333333333333" fill="#3D7C47"/><circle cx="92.44444444444446" cy="21.333333333333332" r="5.973333333333333" fill="#3D7C47"/><circle cx="35.55555555555556" cy="64" r="5.973333333333333" fill="#3D7C47"/><circle cx="92.44444444444446" cy="64" r="5.973333333333333" fill="#3D7C47"/><circle cx="35.55555555555556" cy="78.22222222222223" r="5.973333333333333" fill="#3D7C47"/><circle cx="92.44444444444446" cy="78.22222222222223" r="5.973333333333333" fill="#3D7C47"/><circle cx="35.55555555555556" cy="92.44444444444446" r="5.973333333333333" fill="#3D7C47"/><circle cx="92.44444444444446" cy="92.44444444444446" r="5.973333333333333" fill="#3D7C47"/><circle cx="35.55555555555556" cy="106.66666666666666" r="5.973333333333333" fill="#3D7C47"/><circle cx="92.44444444444446" cy="106.66666666666666" r="5.973333333333333" fill="#3D7C47"/><circle cx="49.77777777777777" cy="35.55555555555556" r="5.973333333333333" fill="#3D7C47"/><circle cx="78.22222222222223" cy="35.55555555555556" r="5.973333333333333" fill="#3D7C47"/><circle cx="49.77777777777777" cy="92.44444444444446" r="5.973333333333333" fill="#3D7C47"/><circle cx="78.22222222222223" cy="92.44444444444446" r="5.973333333333333" fill="#3D7C47"/><circle cx="64" cy="49.77777777777777" r="5.973333333333333" fill="#3D7C47"/><circle cx="64" cy="64" r="5.973333333333333" fill="#3D7C47"/><circle cx="64" cy="78.22222222222223" r="5.973333333333333" fill="#3D7C47"/><circle cx="64" cy="106.66666666666666" r="5.973333333333333" fill="#3D7C47"/>
</svg>