<svg xmlns="http://www.w3.org/2000/svg" viewBox="0 0 128 128" width="128" height="128">
<rect width="128" height="128" fill="#FAFAFA"/>
<rect x="4" y="4" width="120" height="120" fill="none" stroke="#264653" stroke-width="1.5" rx="4" opacity="0.2"/>
<polygon points="21.333333333333332,58.02666666666667 27.306666666666665,64 21.333333333333332,69.97333333333333 15.36,64" fill="#264653"/><polygon points="106.66666666666666,58.02666666666667 112.63999999999999,64 106.66666666666666,69.97333333333333 100.69333333333333,64" fill="#264653"/><polygon points="35.55555555555556,29.582222222222224 41.528888888888886,35.55555555555556 35.55555555555556,41.528888888888886 29.582222222222224,35.55555555555556" fill="#264653"/><polygon points="92.44444444444446,29.582222222222224 98.41777777777779,35.55555555555556 92.44444444444446,41.528888888888886 86.47111111111113,35.55555555555556" fill="#264653"/><polygon points="35.55555555555556,58.02666666666667 41.528888888888886,64 35.55555555555556,69.97333333333333 29.582222222222224,64" fill="#264653"/><polygon points="92.44444444444446,58.02666666666667 98.41777777777779,64 92.44444444444446,69.97333333333333 86.47111111111113,64" fill="#264653"/><polygon points="35.55555555555556,72.2488888888889 41.528888888888886,78.22222222222223 35.55555555555556,84.19555555555556 29.582222222222224,78.22222222222223" fill="#264653"/><polygon points="92.44444444444446,72.2488888888889 98.41777777777779,78.22222222222223 92.44444444444446,84.19555555555556 86.47111111111113,78.22222222222223" fill="#264653"/><polygon points="35.55555555555556,86.47111111111113 41.528888888888886,92.44444444444446 35.55555555555556,98.41777777777779 29.582222222222224,92.44444444444446" fill="#264653"/><polygon points="92.44444444444446,86.47111111111113 98.41777777777779,92.44444444444446 92.44444444444446,98.41777777777779 86.47111111111113,92.44444444444446" fill="#264653"/><polygon points="49.77777777777777,15.36 55.7511111111111,21.333333333333332 49.77777777777777,27.306666666666665 43.80444444444444,21.333333333333332" fill="#264653"/><polygon points="78.22222222222223,15.36 84.19555555555556,21.333333333333332 78.22222222222223,27.306666666666665 72.2488888888889,21.333333333333332" fill="#264653"/><polygon points="49.77777777777777,43.80444444444444 55.7511111111111,49.77777777777777 49.77777777777777,55.7511111111111 43.80444444444444,49.77777777777777" fill="#264653"/><polygon points="78.22222222222223,43.80444444444444 84.19555555555556,49.77777777777777 78.22222222222223,55.7511111111111 72.2488888888889,49.77777777777777" fill="#264653"/><polygon points="49.77777777777777,58.02666666666667 55.7511111111111,64 49.77777777777777,69.97333333333333 43.80444444444444,64" fill="#264653"/><polygon points="78.22222222222223,58.02666666666667 84.19555555555556,64 78.22222222222223,69.97333333333333 72.2488888888889,64" fill="#264653"/><polygon points="49.77777777777777,72.2488888888889 55.7511111111111,78.22222222222223 49.77777777777777,84.19555555555556 43.80444444444444,78.22222222222223" fill="#264653"/><polygon points="78.22222222222223,72.2488888888889 84.19555555555556,78.22222222222223 78.22222222222223,84.19555555555556 72.2488888888889,78.22222222222223" fill="#264653"/><polygon points="49.77777777777777,100.69333333333333 55.7511111111111,106.66666666666666 49.77777777777777,112.63999999999999 43.80444444444444,106.66666666666666" fill="#264653"/><polygon points="78.22222222222223,100.69333333333333 84.19555555555556,106.66666666666666 78.22222222222223,112.63999999999999 72.2488888888889,106.66666666666666" fill="#264653"/><polygon points="64,58.02666666666667 69.97333333333333,64 64,69.97333333333333 58.02666666666667,64" fill="#264653"/><polygon points="64,72.2488888888889 69.97333333333333,78.22222222222223 64,84.19555555555556 58.02666666666667,78.22222222222223" fill="#264653"/><polygon points="64,86.47111111111113 69.97333333333333,92.44444444444446 64,98.41777777777779 58.02666666666667,92.44444444444446" fill="#264653"/><polygon points="64,100.69333333333333 69.97333333333333,106.66666666666666 64,112.63999999999999 58.02666666666667,106.66666666666666" fill="#264653"/>
</svg>