<svg xmlns="http://www.w3.org/2000/svg" viewBox="0 0 128 128" width="128" height="128">
<rect width="128" height="128" fill="#FAFAFA"/>

<polygon points="21.333333333333332,43.80444444444444 27.306666666666665,49.77777777777777 21.333333333333332,55.7511111111111 15.36,49.77777777777777" fill="#264653"/><polygon points="106.66666666666666,43.80444444444444 112.63999999999999,49.77777777777777 106.66666666666666,55.7511111111111 100.69333333333333,49.77777777777777" fill="#264653"/><polygon points="21.333333333333332,100.69333333333333 27.306666666666665,106.66666666666666 21.333333333333332,112.63999999999999 15.36,106.66666666666666" fill="#264653"/><polygon points="106.66666666666666,100.69333333333333 112.63999999999999,106.66666666666666 106.66666666666666,112.63999999999999 100.69333333333333,106.66666666666666" fill="#264653"/><polygon points="35.55555555555556,15.36 41.528888888888886,21.333333333333332 35.55555555555556,27.306666666666665 29.582222222222224,21.333333333333332" fill="#264653"/><polygon points="92.44444444444446,15.36 98.41777777777779,21.333333333333332 92.44444444444446,27.306666666666665 86.47111111111113,21.333333333333332" fill="#264653"/><polygon points="35.55555555555556,29.582222222222224 41.528888888888886,35.55555555555556 35.55555555555556,41.528888888888886 29.582222222222224,35.55555555555556" fill="#264653"/><polygon points="92.44444444444446,29.582222222222224 98.41777777777779,35.55555555555556 92.44444444444446,41.528888888888886 86.47111111111113,35.55555555555556" fill="#264653"/><polygon points="35.55555555555556,58.02666666666667 41.528888888888886,64 35.55555555555556,69.97333333333333 29.582222222222224,64" fill="#264653"/><polygon points="92.44444444444446,58.02666666666667 98.41777777777779,64 92.44444444444446,69.97333333333333 86.47111111111113,64" fill="#264653"/><polygon points="35.55555555555556,100.69333333333333 41.528888888888886,106.66666666666666 35.55555555555556,112.63999999999999 29.582222222222224,106.66666666666666" fill="#264653"/><polygon points="92.44444444444446,100.69333333333333 98.41777777777779,106.66666666666666 92.44444444444446,112.63999999999999 86.47111111111113,106.66666666666666" fill="#264653"/><polygon points="49.77777777777777,15.36 55.7511111111111,21.333333333333332 49.77777777777777,27.306666666666665 43.80444444444444,21.333333333333332" fill="#264653"/><polygon points="78.22222222222223,15.36 84.19555555555556,21.333333333333332 78.22222222222223,27.306666666666665 72.2488888888889,21.333333333333332" fill="#264653"/><polygon points="49.77777777777777,29.582222222222224 55.7511111111111,35.55555555555556 49.77777777777777,41.528888888888886 43.80444444444444,35.55555555555556" fill="#264653"/><polygon points="78.22222222222223,29.582222222222224 84.19555555555556,35.55555555555556 78.22222222222223,41.528888888888886 72.2488888888889,35.55555555555556" fill="#264653"/><polygon points="49.77777777777777,86.47111111111113 55.7511111111111,92.44444444444446 49.77777777777777,98.41777777777779 43.80444444444444,92.44444444444446" fill="#264653"/><polygon points="78.22222222222223,86.47111111111113 84.19555555555556,92.44444444444446 78.22222222222223,98.41777777777779 72.2488888888889,92.44444444444446" fill="#264653"/><polygon points="64,43.80444444444444 69.97333333333333,49.77777777777777 64,55.7511111111111 58.02666666666667,49.77777777777777" fill="#264653"/><polygon points="64,58.02666666666667 69.97333333333333,64 64,69.97333333333333 58.02666666666667,64" fill="#264653"/><polygon points="64,72.2488888888889 69.97333333333333,78.22222222222223 64,84.19555555555556 58.02666666666667,78.22222222222223" fill="#264653"/><polygon points="64,100.69333333333333 69.97333333333333,106.66666666666666 64,112.63999999999999 58.02666666666667,106.66666666666666" fill="#264653"/>
</svg>