<svg xmlns="http://www.w3.org/2000/svg" viewBox="0 0 128 128" width="128" height="128">
<defs>
    <linearGradient id="bg_s22092" x1="0" y1="0" x2="0" y2="1">
      <stop offset="0%" stop-color="#9590a0"/>
      <stop offset="100%" stop-color="#7f7a8a"/>
    </linearGradient>
    <radialGradient id="face_s22092" cx="45%" cy="38%">
      <stop offset="0%" stop-color="#f7f3ee"/>
      <stop offset="100%" stop-color="#ede5db"/>
    </radialGradient>
  </defs>
<rect width="128" height="128" fill="url(#bg_s22092)"/>
<ellipse cx="64" cy="68" rx="34" ry="39" fill="url(#face_s22092)"/>
<circle cx="44" cy="76" r="8" fill="#c9a5a5" opacity="0.3"/>
    <circle cx="84" cy="76" r="8" fill="#c9a5a5" opacity="0.3"/>
<path d="M40 54 Q45 51 50 53" fill="none" stroke="#35302b" stroke-width="1.5" stroke-linecap="round" opacity="0.45"/>
     <path d="M78 53 Q83 51 88 54" fill="none" stroke="#35302b" stroke-width="1.5" stroke-linecap="round" opacity="0.45"/>
<path d="M40 62 Q45 68 50 62" fill="none" stroke="#35302b" stroke-width="2.5" stroke-linecap="round"/>
     <path d="M78 62 Q83 68 88 62" fill="none" stroke="#35302b" stroke-width="2.5" stroke-linecap="round"/>
<path d="M64 70 L64 74" stroke="#35302b" stroke-width="1.5" stroke-linecap="round" opacity="0.25"/>
<path d="M64 84 Q60 88 54 84" fill="none" stroke="#35302b" stroke-width="1.5" stroke-linecap="round"/>
     <path d="M64 84 Q68 88 74 84" fill="none" stroke="#35302b" stroke-width="1.5" stroke-linecap="round"/>
</svg>