<svg xmlns="http://www.w3.org/2000/svg" viewBox="0 0 724 80" width="724" height="80"><g transform="translate(0, 0)"><defs><radialGradient id="bg-grad-1744noo" cx="50%" cy="50%" r="50%"><stop offset="0%" stop-color="#8C8578" stop-opacity="1"/><stop offset="100%" stop-color="#8C8578" stop-opacity="0.85"/></radialGradient></defs><rect width="80" height="80" fill="url(#bg-grad-1744noo)"/><circle cx="28.8" cy="35.42857142857143" r="4.8" fill="#1a1a2e"/><circle cx="51.2" cy="35.42857142857143" r="4.8" fill="#1a1a2e"/><path d="M33.6 52 Q40 48.8 46.4 52" fill="none" stroke="#1a1a2e" stroke-width="1.92" stroke-linecap="round"/></g><g transform="translate(92, 0)"><defs><radialGradient id="bg-grad-1k4gd0" cx="50%" cy="50%" r="50%"><stop offset="0%" stop-color="#4A6B7A" stop-opacity="1"/><stop offset="100%" stop-color="#4A6B7A" stop-opacity="0.85"/></radialGradient></defs><rect width="80" height="80" fill="url(#bg-grad-1k4gd0)"/><polygon points="27.200000000000003,42.13333333333333 30.613333333333337,46.4 27.200000000000003,50.666666666666664 23.78666666666667,46.4" fill="#1a1a2e"/><polygon points="52.8,42.13333333333333 56.21333333333333,46.4 52.8,50.666666666666664 49.38666666666666,46.4" fill="#1a1a2e"/><circle cx="40" cy="52" r="2.5600000000000005" fill="#1a1a2e"/></g><g transform="translate(184, 0)"><defs><radialGradient id="bg-grad-1jaa1l8" cx="50%" cy="50%" r="50%"><stop offset="0%" stop-color="#C17A5E" stop-opacity="1"/><stop offset="100%" stop-color="#C17A5E" stop-opacity="0.85"/></radialGradient></defs><rect width="80" height="80" fill="url(#bg-grad-1jaa1l8)"/><polygon points="28.8,32.22857142857143 31.36,35.42857142857143 28.8,38.62857142857143 26.240000000000002,35.42857142857143" fill="#1a1a2e"/><polygon points="51.2,32.22857142857143 53.760000000000005,35.42857142857143 51.2,38.62857142857143 48.64,35.42857142857143" fill="#1a1a2e"/><path d="M33.6 52 Q40 48.8 46.4 52" fill="none" stroke="#1a1a2e" stroke-width="1.92" stroke-linecap="round"/></g><g transform="translate(276, 0)"><defs><radialGradient id="bg-grad-1nnbjr0" cx="50%" cy="50%" r="50%"><stop offset="0%" stop-color="#4A6B7A" stop-opacity="1"/><stop offset="100%" stop-color="#4A6B7A" stop-opacity="0.85"/></radialGradient></defs><rect width="80" height="80" fill="url(#bg-grad-1nnbjr0)"/><polygon points="25.6,42.666666666666664 28.58666666666667,46.4 25.6,50.13333333333333 22.613333333333333,46.4" fill="#1a1a2e"/><polygon points="54.4,42.666666666666664 57.38666666666666,46.4 54.4,50.13333333333333 51.413333333333334,46.4" fill="#1a1a2e"/><path d="M33.6 52 Q40 57.120000000000005 46.4 52" fill="none" stroke="#1a1a2e" stroke-width="1.92" stroke-linecap="round"/></g><g transform="translate(368, 0)"><defs><radialGradient id="bg-grad-1xopwk4" cx="50%" cy="50%" r="50%"><stop offset="0%" stop-color="#B54A32" stop-opacity="1"/><stop offset="100%" stop-color="#B54A32" stop-opacity="0.85"/></radialGradient></defs><rect width="80" height="80" fill="url(#bg-grad-1xopwk4)"/><polygon points="27.200000000000003,34.05714285714286 29.760000000000005,37.25714285714286 27.200000000000003,40.45714285714286 24.64,37.25714285714286" fill="#1a1a2e"/><polygon points="52.8,34.05714285714286 55.36,37.25714285714286 52.8,40.45714285714286 50.239999999999995,37.25714285714286" fill="#1a1a2e"/><circle cx="40" cy="52" r="2.5600000000000005" fill="#1a1a2e"/></g><g transform="translate(460, 0)"><defs><radialGradient id="bg-grad-asg6as" cx="50%" cy="50%" r="50%"><stop offset="0%" stop-color="#3A4E6A" stop-opacity="1"/><stop offset="100%" stop-color="#3A4E6A" stop-opacity="0.85"/></radialGradient></defs><rect width="80" height="80" fill="url(#bg-grad-asg6as)"/><polygon points="30.4,41.6 34.239999999999995,46.4 30.4,51.199999999999996 26.56,46.4" fill="#1a1a2e"/><polygon points="49.6,41.6 53.44,46.4 49.6,51.199999999999996 45.760000000000005,46.4" fill="#1a1a2e"/><line x1="34.879999999999995" y1="52" x2="45.120000000000005" y2="52" stroke="#1a1a2e" stroke-width="1.6" stroke-linecap="round"/></g><g transform="translate(552, 0)"><defs><radialGradient id="bg-grad-hugayo" cx="50%" cy="50%" r="50%"><stop offset="0%" stop-color="#A3725A" stop-opacity="1"/><stop offset="100%" stop-color="#A3725A" stop-opacity="0.85"/></radialGradient></defs><rect width="80" height="80" fill="url(#bg-grad-hugayo)"/><circle cx="30.4" cy="39.08571428571429" r="3.2" fill="#1a1a2e"/><circle cx="49.6" cy="39.08571428571429" r="3.2" fill="#1a1a2e"/><path d="M33.6 52 Q40 48.8 46.4 52" fill="none" stroke="#1a1a2e" stroke-width="1.92" stroke-linecap="round"/></g><g transform="translate(644, 0)"><defs><radialGradient id="bg-grad-18mibyc" cx="50%" cy="50%" r="50%"><stop offset="0%" stop-color="#A3725A" stop-opacity="1"/><stop offset="100%" stop-color="#A3725A" stop-opacity="0.85"/></radialGradient></defs><rect width="80" height="80" fill="url(#bg-grad-18mibyc)"/><polygon points="30.4,41.37142857142857 32.96,44.57142857142857 30.4,47.77142857142857 27.839999999999996,44.57142857142857" fill="#1a1a2e"/><polygon points="49.6,41.37142857142857 52.160000000000004,44.57142857142857 49.6,47.77142857142857 47.04,44.57142857142857" fill="#1a1a2e"/><circle cx="40" cy="52" r="2.5600000000000005" fill="#1a1a2e"/></g></svg>